<svg width="15" height="15" viewBox="0 0 15 15" fill="none" xmlns="http://www.w3.org/2000/svg">
<path d="M14.6064 11.5712L11.5703 9.54647C11.1851 9.29159 10.6686 9.37546 10.3838 9.73918L9.49938 10.8763C9.38573 11.0261 9.17913 11.0696 9.01471 10.9783L8.84648 10.8855C8.28881 10.5815 7.59493 10.2031 6.19688 8.80457C4.79884 7.40603 4.41965 6.71162 4.11568 6.15498L4.02344 5.98675C3.93084 5.82236 3.97349 5.61488 4.12341 5.50032L5.25973 4.61621C5.62331 4.33134 5.70729 3.81503 5.45271 3.42963L3.42801 0.393576C3.1671 0.00111485 2.64364 -0.1167 2.23973 0.126106L0.970159 0.888737C0.571253 1.12325 0.278592 1.50306 0.153542 1.94857C-0.303626 3.61432 0.0402969 6.48915 4.27518 10.7245C7.64393 14.093 10.1518 14.9989 11.8756 14.9989C12.2723 15.0006 12.6674 14.949 13.0504 14.8454C13.496 14.7205 13.8759 14.4278 14.1102 14.0288L14.8736 12.76C15.1168 12.356 14.999 11.8322 14.6064 11.5712ZM14.4429 12.5035L13.6813 13.7731C13.513 14.0611 13.2398 14.2728 12.9189 14.364C11.3811 14.7862 8.69451 14.4365 4.62885 10.3708C0.563198 6.30519 0.213533 3.61883 0.635726 2.08083C0.727002 1.75955 0.939021 1.48598 1.22738 1.31743L2.49694 0.555798C2.6722 0.450345 2.89939 0.50146 3.01261 0.671767L4.11246 2.32302L5.03558 3.70756C5.14613 3.87473 5.10981 4.09879 4.9521 4.22249L3.81552 5.1066C3.46963 5.37108 3.37086 5.84963 3.58381 6.22944L3.67406 6.39342C3.99353 6.97933 4.39071 7.70821 5.84074 9.15802C7.29078 10.6078 8.01944 11.005 8.60508 11.3244L8.76929 11.4149C9.14907 11.6278 9.62765 11.5291 9.89214 11.1832L10.7762 10.0466C10.9 9.88901 11.1239 9.85272 11.2912 9.96315L14.327 11.9879C14.4974 12.101 14.5485 12.3283 14.4429 12.5035Z" fill="#999999"/>
<path d="M8.49995 2.50064C10.8457 2.50325 12.7467 4.40424 12.7493 6.75002C12.7493 6.88807 12.8612 6.99997 12.9993 6.99997C13.1373 6.99997 13.2492 6.88807 13.2492 6.75002C13.2463 4.12825 11.1217 2.0036 8.49995 2.00073C8.3619 2.00073 8.25 2.11263 8.25 2.25069C8.25 2.38874 8.3619 2.50064 8.49995 2.50064Z" fill="#999999"/>
<path d="M8.49995 4.00039C10.0178 4.00218 11.2478 5.23217 11.2496 6.75C11.2496 6.88805 11.3615 6.99995 11.4995 6.99995C11.6376 6.99995 11.7495 6.88805 11.7495 6.75C11.7474 4.95618 10.2937 3.50254 8.49995 3.50049C8.3619 3.50049 8.25 3.61239 8.25 3.75044C8.25 3.8885 8.3619 4.00039 8.49995 4.00039Z" fill="#999999"/>
<path d="M8.49995 5.50039C9.18985 5.50121 9.74893 6.06029 9.74978 6.75022C9.74978 6.88827 9.8617 7.00017 9.99973 7.00017C10.1378 7.00017 10.2497 6.88827 10.2497 6.75022C10.2486 5.78433 9.46585 5.00157 8.49995 5.00049C8.3619 5.00049 8.25 5.11239 8.25 5.25044C8.25 5.3885 8.3619 5.50039 8.49995 5.50039Z" fill="#999999"/>
</svg>
